<svg xmlns="http://www.w3.org/2000/svg" xmlns:xlink="http://www.w3.org/1999/xlink" width="600" zoomAndPan="magnify" viewBox="0 0 450 112.499997" height="150" preserveAspectRatio="xMidYMid meet" version="1.0"><defs><g/></defs><g fill="#295e37" fill-opacity="1"><g transform="translate(22.161313, 82.434448)"><g><path d="M 28.71875 -19.609375 L 28.71875 -17.453125 C 28.71875 -16.171875 29.035156 -15.175781 29.671875 -14.46875 C 30.316406 -13.757812 31.476562 -13.40625 33.15625 -13.40625 L 36.84375 -13.40625 L 36.84375 0 L 1.484375 0 L 1.484375 -13.40625 C 3.597656 -13.40625 5.113281 -13.6875 6.03125 -14.25 C 6.945312 -14.8125 7.40625 -15.878906 7.40625 -17.453125 L 7.40625 -35.734375 C 7.40625 -37.316406 6.945312 -38.390625 6.03125 -38.953125 C 5.113281 -39.523438 3.597656 -39.8125 1.484375 -39.8125 L 1.484375 -53.21875 L 40.453125 -53.21875 C 44.023438 -53.21875 47.015625 -52.796875 49.421875 -51.953125 C 51.828125 -51.109375 53.757812 -49.929688 55.21875 -48.421875 C 56.675781 -46.921875 57.710938 -45.097656 58.328125 -42.953125 C 58.941406 -40.804688 59.25 -38.445312 59.25 -35.875 C 59.25 -33.269531 58.941406 -30.96875 58.328125 -28.96875 C 57.710938 -26.96875 56.675781 -25.265625 55.21875 -23.859375 C 53.757812 -22.453125 51.828125 -21.390625 49.421875 -20.671875 C 47.015625 -19.960938 44.023438 -19.609375 40.453125 -19.609375 Z M 28.71875 -28.171875 L 32.625 -28.171875 C 34.644531 -28.171875 36.039062 -28.703125 36.8125 -29.765625 C 37.582031 -30.828125 37.96875 -32.222656 37.96875 -33.953125 C 37.96875 -35.597656 37.582031 -36.984375 36.8125 -38.109375 C 36.039062 -39.242188 34.644531 -39.8125 32.625 -39.8125 L 28.71875 -39.8125 Z M 28.71875 -28.171875 "/></g></g></g><g fill="#295e37" fill-opacity="1"><g transform="translate(82.16849, 82.434448)"><g><path d="M 40.75 -41.4375 C 43.925781 -41.4375 46.507812 -40.96875 48.5 -40.03125 C 50.488281 -39.09375 52.039062 -37.90625 53.15625 -36.46875 C 54.28125 -35.03125 55.046875 -33.472656 55.453125 -31.796875 C 55.859375 -30.128906 56.0625 -28.5625 56.0625 -27.09375 L 56.0625 -16.9375 C 56.0625 -15.664062 56.285156 -14.757812 56.734375 -14.21875 C 57.179688 -13.675781 58.039062 -13.40625 59.3125 -13.40625 L 61.265625 -13.40625 L 61.265625 0 L 36.265625 0 L 36.265625 -23.078125 C 36.265625 -24.023438 36.148438 -24.78125 35.921875 -25.34375 C 35.691406 -25.90625 35.398438 -26.335938 35.046875 -26.640625 C 34.703125 -26.941406 34.3125 -27.140625 33.875 -27.234375 C 33.445312 -27.335938 33.03125 -27.390625 32.625 -27.390625 C 31.050781 -27.390625 29.878906 -26.929688 29.109375 -26.015625 C 28.335938 -25.097656 27.953125 -23.796875 27.953125 -22.109375 L 27.953125 -16.9375 C 27.953125 -15.664062 28.175781 -14.757812 28.625 -14.21875 C 29.070312 -13.675781 29.9375 -13.40625 31.21875 -13.40625 L 33.890625 -13.40625 L 33.890625 0 L 2.96875 0 L 2.96875 -13.40625 L 5.09375 -13.40625 C 6.082031 -13.40625 6.832031 -13.722656 7.34375 -14.359375 C 7.863281 -14.992188 8.125 -15.757812 8.125 -16.65625 L 8.0625 -35.734375 C 8.0625 -37.128906 7.617188 -38.15625 6.734375 -38.8125 C 5.859375 -39.476562 4.84375 -39.8125 3.6875 -39.8125 L 2.96875 -39.8125 L 2.96875 -53.21875 L 27.953125 -53.21875 L 27.953125 -39.8125 C 27.953125 -39.351562 27.804688 -38.554688 27.515625 -37.421875 C 27.234375 -36.296875 26.695312 -35.164062 25.90625 -34.03125 L 26.625 -33.671875 C 27.925781 -36.023438 29.671875 -37.90625 31.859375 -39.3125 C 34.054688 -40.726562 37.019531 -41.4375 40.75 -41.4375 Z M 40.75 -41.4375 "/></g></g></g><g fill="#295e37" fill-opacity="1"><g transform="translate(144.162661, 82.434448)"><g><path d="M 32.109375 -13.40625 C 33.441406 -13.40625 34.738281 -13.546875 36 -13.828125 C 37.257812 -14.117188 38.363281 -14.722656 39.3125 -15.640625 C 40.269531 -16.554688 41.050781 -17.875 41.65625 -19.59375 C 42.257812 -21.320312 42.5625 -23.640625 42.5625 -26.546875 C 42.5625 -29.410156 42.269531 -31.71875 41.6875 -33.46875 C 41.113281 -35.21875 40.363281 -36.5625 39.4375 -37.5 C 38.507812 -38.4375 37.398438 -39.054688 36.109375 -39.359375 C 34.816406 -39.660156 33.484375 -39.8125 32.109375 -39.8125 L 28.71875 -39.8125 L 28.71875 -13.40625 Z M 1.484375 0 L 1.484375 -13.40625 C 3.597656 -13.40625 5.113281 -13.6875 6.03125 -14.25 C 6.945312 -14.8125 7.40625 -15.878906 7.40625 -17.453125 L 7.40625 -35.734375 C 7.40625 -37.316406 6.945312 -38.390625 6.03125 -38.953125 C 5.113281 -39.523438 3.597656 -39.8125 1.484375 -39.8125 L 1.484375 -53.21875 L 39.8125 -53.21875 C 43.25 -53.21875 46.582031 -52.757812 49.8125 -51.84375 C 53.039062 -50.925781 55.910156 -49.429688 58.421875 -47.359375 C 60.941406 -45.285156 62.96875 -42.546875 64.5 -39.140625 C 66.03125 -35.734375 66.796875 -31.535156 66.796875 -26.546875 C 66.796875 -21.566406 66.039062 -17.378906 64.53125 -13.984375 C 63.03125 -10.585938 60.984375 -7.851562 58.390625 -5.78125 C 55.804688 -3.707031 52.78125 -2.210938 49.3125 -1.296875 C 45.84375 -0.378906 42.15625 0.078125 38.25 0.078125 Z M 1.484375 0 "/></g></g></g><g fill="#295e37" fill-opacity="1"><g transform="translate(212.840352, 82.434448)"><g><path d="M 13.1875 -9.46875 C 13.664062 -10.070312 14.300781 -10.726562 15.09375 -11.4375 C 15.894531 -12.144531 16.8125 -12.804688 17.84375 -13.421875 C 18.882812 -14.035156 20.050781 -14.550781 21.34375 -14.96875 C 22.644531 -15.394531 24.066406 -15.609375 25.609375 -15.609375 C 27.171875 -15.609375 28.492188 -15.519531 29.578125 -15.34375 C 30.671875 -15.175781 31.660156 -15.003906 32.546875 -14.828125 C 33.441406 -14.648438 34.285156 -14.472656 35.078125 -14.296875 C 35.867188 -14.128906 36.75 -14.046875 37.71875 -14.046875 C 39.539062 -14.046875 40.96875 -14.441406 42 -15.234375 C 43.039062 -16.035156 43.5625 -17.519531 43.5625 -19.6875 L 50.6875 -19.6875 C 50.6875 -15.082031 50.25 -11.425781 49.375 -8.71875 C 48.507812 -6.007812 47.320312 -3.953125 45.8125 -2.546875 C 44.3125 -1.140625 42.523438 -0.242188 40.453125 0.140625 C 38.390625 0.523438 36.175781 0.71875 33.8125 0.71875 C 31.9375 0.71875 30.125 0.535156 28.375 0.171875 C 26.625 -0.179688 24.945312 -0.566406 23.34375 -0.984375 C 21.75 -1.410156 20.222656 -1.8125 18.765625 -2.1875 C 17.304688 -2.5625 15.941406 -2.75 14.671875 -2.75 C 13.554688 -2.75 12.679688 -2.597656 12.046875 -2.296875 C 11.410156 -1.992188 10.898438 -1.675781 10.515625 -1.34375 C 10.054688 -0.925781 9.707031 -0.476562 9.46875 0 L 1.1875 0 C 1.1875 -3.613281 1.585938 -6.738281 2.390625 -9.375 C 3.203125 -12.007812 4.273438 -14.304688 5.609375 -16.265625 C 6.953125 -18.234375 8.484375 -19.921875 10.203125 -21.328125 C 11.921875 -22.734375 13.671875 -23.96875 15.453125 -25.03125 C 17.242188 -26.09375 19 -27.046875 20.71875 -27.890625 C 22.4375 -28.734375 23.960938 -29.597656 25.296875 -30.484375 C 26.640625 -31.378906 27.710938 -32.34375 28.515625 -33.375 C 29.328125 -34.414062 29.734375 -35.644531 29.734375 -37.0625 C 29.734375 -39.1875 28.90625 -40.765625 27.25 -41.796875 C 25.601562 -42.828125 23.625 -43.34375 21.3125 -43.34375 C 19.675781 -43.34375 18.207031 -43.222656 16.90625 -42.984375 C 15.601562 -42.742188 14.363281 -42.320312 13.1875 -41.71875 C 14.65625 -41.289062 15.929688 -40.59375 17.015625 -39.625 C 18.097656 -38.664062 18.640625 -37.242188 18.640625 -35.359375 C 18.640625 -34.523438 18.453125 -33.710938 18.078125 -32.921875 C 17.703125 -32.140625 17.160156 -31.421875 16.453125 -30.765625 C 15.742188 -30.117188 14.847656 -29.613281 13.765625 -29.25 C 12.679688 -28.894531 11.453125 -28.71875 10.078125 -28.71875 C 9.046875 -28.71875 7.976562 -28.882812 6.875 -29.21875 C 5.78125 -29.5625 4.789062 -30.101562 3.90625 -30.84375 C 3.03125 -31.59375 2.3125 -32.566406 1.75 -33.765625 C 1.1875 -34.972656 0.90625 -36.445312 0.90625 -38.1875 C 0.90625 -40.5 1.519531 -42.617188 2.75 -44.546875 C 3.976562 -46.472656 5.695312 -48.140625 7.90625 -49.546875 C 10.125 -50.953125 12.785156 -52.035156 15.890625 -52.796875 C 19.003906 -53.554688 22.414062 -53.9375 26.125 -53.9375 C 30.070312 -53.9375 33.550781 -53.515625 36.5625 -52.671875 C 39.570312 -51.828125 42.097656 -50.664062 44.140625 -49.1875 C 46.191406 -47.707031 47.734375 -45.984375 48.765625 -44.015625 C 49.804688 -42.054688 50.328125 -39.957031 50.328125 -37.71875 C 50.328125 -35.019531 49.890625 -32.765625 49.015625 -30.953125 C 48.148438 -29.148438 46.976562 -27.65625 45.5 -26.46875 C 44.019531 -25.289062 42.316406 -24.320312 40.390625 -23.5625 C 38.460938 -22.8125 36.4375 -22.144531 34.3125 -21.5625 C 32.195312 -20.988281 30.054688 -20.414062 27.890625 -19.84375 C 25.722656 -19.28125 23.660156 -18.570312 21.703125 -17.71875 C 19.753906 -16.863281 17.976562 -15.800781 16.375 -14.53125 C 14.78125 -13.269531 13.515625 -11.65625 12.578125 -9.6875 Z M 13.1875 -9.46875 "/></g></g></g><g fill="#295e37" fill-opacity="1"><g transform="translate(265.369212, 82.434448)"><g><path d="M 28.71875 -19.609375 L 28.71875 -17.453125 C 28.71875 -16.171875 29.035156 -15.175781 29.671875 -14.46875 C 30.316406 -13.757812 31.476562 -13.40625 33.15625 -13.40625 L 36.84375 -13.40625 L 36.84375 0 L 1.484375 0 L 1.484375 -13.40625 C 3.597656 -13.40625 5.113281 -13.6875 6.03125 -14.25 C 6.945312 -14.8125 7.40625 -15.878906 7.40625 -17.453125 L 7.40625 -35.734375 C 7.40625 -37.316406 6.945312 -38.390625 6.03125 -38.953125 C 5.113281 -39.523438 3.597656 -39.8125 1.484375 -39.8125 L 1.484375 -53.21875 L 40.453125 -53.21875 C 44.023438 -53.21875 47.015625 -52.796875 49.421875 -51.953125 C 51.828125 -51.109375 53.757812 -49.929688 55.21875 -48.421875 C 56.675781 -46.921875 57.710938 -45.097656 58.328125 -42.953125 C 58.941406 -40.804688 59.25 -38.445312 59.25 -35.875 C 59.25 -33.269531 58.941406 -30.96875 58.328125 -28.96875 C 57.710938 -26.96875 56.675781 -25.265625 55.21875 -23.859375 C 53.757812 -22.453125 51.828125 -21.390625 49.421875 -20.671875 C 47.015625 -19.960938 44.023438 -19.609375 40.453125 -19.609375 Z M 28.71875 -28.171875 L 32.625 -28.171875 C 34.644531 -28.171875 36.039062 -28.703125 36.8125 -29.765625 C 37.582031 -30.828125 37.96875 -32.222656 37.96875 -33.953125 C 37.96875 -35.597656 37.582031 -36.984375 36.8125 -38.109375 C 36.039062 -39.242188 34.644531 -39.8125 32.625 -39.8125 L 28.71875 -39.8125 Z M 28.71875 -28.171875 "/></g></g></g><g fill="#295e37" fill-opacity="1"><g transform="translate(325.376374, 82.434448)"><g><path d="M 24.421875 -39.8125 L 23.8125 -29.875 L 24.421875 -29.875 C 25.265625 -33.675781 26.664062 -36.550781 28.625 -38.5 C 30.59375 -40.457031 33.140625 -41.4375 36.265625 -41.4375 C 38.117188 -41.4375 39.710938 -41.140625 41.046875 -40.546875 C 42.390625 -39.960938 43.46875 -39.175781 44.28125 -38.1875 C 45.101562 -37.195312 45.691406 -36.054688 46.046875 -34.765625 C 46.410156 -33.484375 46.59375 -32.15625 46.59375 -30.78125 C 46.59375 -29.644531 46.425781 -28.519531 46.09375 -27.40625 C 45.757812 -26.300781 45.21875 -25.300781 44.46875 -24.40625 C 43.71875 -23.519531 42.753906 -22.804688 41.578125 -22.265625 C 40.398438 -21.722656 38.941406 -21.453125 37.203125 -21.453125 C 34.796875 -21.453125 32.898438 -22.066406 31.515625 -23.296875 C 30.128906 -24.523438 29.4375 -26.007812 29.4375 -27.75 C 29.4375 -28.59375 29.53125 -29.304688 29.71875 -29.890625 C 29.914062 -30.484375 30.117188 -30.96875 30.328125 -31.34375 C 30.535156 -31.71875 30.671875 -31.988281 30.734375 -32.15625 C 30.804688 -32.320312 30.722656 -32.40625 30.484375 -32.40625 C 29.984375 -32.40625 29.4375 -31.828125 28.84375 -30.671875 C 28.25 -29.515625 27.953125 -27.695312 27.953125 -25.21875 L 27.953125 -16.9375 C 27.953125 -15.664062 28.175781 -14.757812 28.625 -14.21875 C 29.070312 -13.675781 29.9375 -13.40625 31.21875 -13.40625 L 33.375 -13.40625 L 33.375 0 L 2.96875 0 L 2.96875 -13.40625 L 5.09375 -13.40625 C 6.082031 -13.40625 6.832031 -13.722656 7.34375 -14.359375 C 7.863281 -14.992188 8.125 -15.757812 8.125 -16.65625 L 8.125 -23.515625 C 8.125 -24.648438 7.789062 -25.414062 7.125 -25.8125 C 6.46875 -26.207031 5.71875 -26.40625 4.875 -26.40625 L 2.96875 -26.40625 L 2.96875 -39.8125 Z M 24.421875 -39.8125 "/></g></g></g><g fill="#295e37" fill-opacity="1"><g transform="translate(372.739068, 82.434448)"><g><path d="M 1.484375 -19.984375 C 1.484375 -23.515625 2.097656 -26.617188 3.328125 -29.296875 C 4.554688 -31.972656 6.304688 -34.207031 8.578125 -36 C 10.859375 -37.789062 13.597656 -39.144531 16.796875 -40.0625 C 20.003906 -40.976562 23.582031 -41.4375 27.53125 -41.4375 C 31.476562 -41.4375 35.050781 -40.976562 38.25 -40.0625 C 41.457031 -39.144531 44.191406 -37.789062 46.453125 -36 C 48.722656 -34.207031 50.476562 -31.972656 51.71875 -29.296875 C 52.957031 -26.617188 53.578125 -23.515625 53.578125 -19.984375 C 53.578125 -16.484375 52.957031 -13.382812 51.71875 -10.6875 C 50.476562 -7.988281 48.722656 -5.726562 46.453125 -3.90625 C 44.191406 -2.09375 41.457031 -0.734375 38.25 0.171875 C 35.050781 1.085938 31.476562 1.546875 27.53125 1.546875 C 23.582031 1.546875 20.003906 1.085938 16.796875 0.171875 C 13.597656 -0.734375 10.859375 -2.09375 8.578125 -3.90625 C 6.304688 -5.726562 4.554688 -7.988281 3.328125 -10.6875 C 2.097656 -13.382812 1.484375 -16.484375 1.484375 -19.984375 Z M 22.03125 -19.984375 C 22.03125 -17.953125 22.117188 -16.234375 22.296875 -14.828125 C 22.484375 -13.421875 22.78125 -12.289062 23.1875 -11.4375 C 23.601562 -10.582031 24.160156 -9.953125 24.859375 -9.546875 C 25.554688 -9.148438 26.445312 -8.953125 27.53125 -8.953125 C 28.613281 -8.953125 29.5 -9.148438 30.1875 -9.546875 C 30.875 -9.953125 31.425781 -10.582031 31.84375 -11.4375 C 32.257812 -12.289062 32.550781 -13.421875 32.71875 -14.828125 C 32.894531 -16.234375 32.984375 -17.953125 32.984375 -19.984375 C 32.984375 -24.023438 32.601562 -26.859375 31.84375 -28.484375 C 31.082031 -30.109375 29.644531 -30.921875 27.53125 -30.921875 C 26.445312 -30.921875 25.554688 -30.734375 24.859375 -30.359375 C 24.160156 -29.984375 23.601562 -29.367188 23.1875 -28.515625 C 22.78125 -27.660156 22.484375 -26.53125 22.296875 -25.125 C 22.117188 -23.71875 22.03125 -22.003906 22.03125 -19.984375 Z M 22.03125 -19.984375 "/></g></g></g></svg>